<svg xmlns="http://www.w3.org/2000/svg" viewBox="0 0 1180 320" role="img" aria-labelledby="title desc">
  <title id="title">HealthStory AI horizontal logo</title>
  <desc id="desc">HealthStory AI wordmark with the body signal logo mark.</desc>
  <defs>
    <linearGradient id="bg" x1="44" y1="28" x2="252" y2="292" gradientUnits="userSpaceOnUse">
      <stop offset="0" stop-color="#073D45"/>
      <stop offset=".5" stop-color="#08737C"/>
      <stop offset=".76" stop-color="#19B6A7"/>
      <stop offset="1" stop-color="#6D5DFC"/>
    </linearGradient>
    <linearGradient id="signal" x1="70" y1="165" x2="228" y2="165" gradientUnits="userSpaceOnUse">
      <stop offset="0" stop-color="#FFF8E8"/>
      <stop offset=".5" stop-color="#DFFFF4"/>
      <stop offset="1" stop-color="#9FF3D6"/>
    </linearGradient>
    <linearGradient id="word" x1="326" y1="94" x2="1008" y2="220" gradientUnits="userSpaceOnUse">
      <stop offset="0" stop-color="#10282B"/>
      <stop offset=".56" stop-color="#075E67"/>
      <stop offset="1" stop-color="#1FB6AA"/>
    </linearGradient>
  </defs>
  <rect x="20" y="20" width="280" height="280" rx="72" fill="url(#bg)"/>
  <path d="M74 221V91h31v53h46V91h31v130h-31v-52h-46v52H74Z" fill="#FDFBF3"/>
  <path d="M86 167c26-49 53-49 80 0 16 29 31 36 45 14 8-12 15-20 37-20" fill="none" stroke="url(#signal)" stroke-width="19" stroke-linecap="round" stroke-linejoin="round"/>
  <circle cx="249" cy="161" r="16" fill="#F3B640"/>
  <text x="340" y="146" fill="url(#word)" font-family="Inter, Arial, sans-serif" font-size="82" font-weight="850">HealthStory</text>
  <text x="342" y="221" fill="#557074" font-family="Inter, Arial, sans-serif" font-size="52" font-weight="750">AI</text>
  <path d="M420 246h450" stroke="#9FF3D6" stroke-width="10" stroke-linecap="round"/>
</svg>
