<svg xmlns="http://www.w3.org/2000/svg" viewBox="0 0 512 512" role="img" aria-labelledby="title desc">
  <title id="title">VitalTracker logo mark</title>
  <desc id="desc">A premium V-shaped mark with a heartbeat signal.</desc>
  <defs>
    <linearGradient id="bg" x1="58" y1="46" x2="454" y2="468" gradientUnits="userSpaceOnUse">
      <stop offset="0" stop-color="#17120F"/>
      <stop offset=".38" stop-color="#0F6E56"/>
      <stop offset=".72" stop-color="#18B99A"/>
      <stop offset="1" stop-color="#6D5DFC"/>
    </linearGradient>
    <linearGradient id="pulse" x1="112" y1="270" x2="398" y2="270" gradientUnits="userSpaceOnUse">
      <stop offset="0" stop-color="#FFF7E6"/>
      <stop offset=".52" stop-color="#DFFFF4"/>
      <stop offset="1" stop-color="#8EE8C8"/>
    </linearGradient>
    <filter id="glow" x="-20%" y="-20%" width="140%" height="140%" color-interpolation-filters="sRGB">
      <feDropShadow dx="0" dy="18" stdDeviation="20" flood-color="#08261F" flood-opacity=".3"/>
      <feDropShadow dx="0" dy="0" stdDeviation="10" flood-color="#8EE8C8" flood-opacity=".32"/>
    </filter>
  </defs>
  <rect width="512" height="512" rx="116" fill="url(#bg)"/>
  <path d="M106 126h70l80 217 80-217h70L292 386h-72L106 126Z" fill="#FFF8E8"/>
  <path d="M108 276c42-74 82-74 121 0 23 43 45 54 66 22 13-20 25-33 57-33h42" fill="none" stroke="url(#pulse)" stroke-width="32" stroke-linecap="round" stroke-linejoin="round" filter="url(#glow)"/>
  <circle cx="398" cy="265" r="27" fill="#F3B640"/>
  <circle cx="398" cy="265" r="11" fill="#FFF8E8"/>
  <path d="M94 104c45-34 99-51 162-51 67 0 123 19 168 56" fill="none" stroke="#FFFFFF" stroke-width="10" stroke-linecap="round" opacity=".18"/>
</svg>
